<svg xmlns="http://www.w3.org/2000/svg" viewBox="0 0 64 64">
  <defs>
    <linearGradient id="bg" x1="0%" y1="0%" x2="100%" y2="100%">
      <stop offset="0%" stop-color="#8fe6ff" />
      <stop offset="100%" stop-color="#1f73e9" />
    </linearGradient>
  </defs>
  <rect x="4" y="4" width="56" height="56" rx="18" fill="url(#bg)" />
  <path
    d="M21 20h12c7 0 11 3.8 11 9.5 0 3.8-2.1 6.6-5.5 8 2.4.7 4.4 3 4.4 6.4 0 6.1-4.5 10.1-11.6 10.1H21V20zm9.4 13.2c3.2 0 5-1.3 5-3.7 0-2.2-1.8-3.5-4.9-3.5h-3.8v7.2h3.7zm.7 15c3.4 0 5.3-1.4 5.3-4 0-2.5-1.9-3.9-5.3-3.9h-4.4v7.9h4.4z"
    fill="#fff"
  />
</svg>
